<?xml version="1.0" encoding="UTF-8"?>
<svg width="368px" height="233px" viewBox="0 0 368 233" version="1.1" xmlns="http://www.w3.org/2000/svg" xmlns:xlink="http://www.w3.org/1999/xlink">
    <title>Artboard</title>
    <g id="Artboard" stroke="none" stroke-width="1" fill="none" fill-rule="evenodd">
        <path d="M208.38806,62.7564103 L208.38806,27.3846154 C202.378812,33.6511221 197.008126,39.252108 191.373134,45.1276069 C197.161423,51.1253678 202.466561,56.6213929 208.38806,62.7564103 M156.208955,27.3846154 L156.208955,62.7564103 C162.222432,56.4916824 167.600519,50.8885835 173.223881,45.0318986 C167.455679,39.0495733 162.146312,33.5421456 156.208955,27.3846154 M184.004406,36.2708375 C196.632522,24.22135 208.880638,12.533425 222,0.015575 L222,88.9855375 C208.930203,76.51775 196.692,64.8442875 184.016522,52.7514125 C171.560232,64.6284625 159.215188,76.3987125 146,89 L146,0 C159.077507,12.4811375 171.311304,24.1579375 184.004406,36.2708375" id="Logo" fill="#242631"></path>
        <text id="Monarch" font-family="Oswald-Bold, Oswald" font-size="97" font-weight="bold" letter-spacing="3.55666667" fill="#242631">
            <tspan x="0" y="205">Monarch</tspan>
        </text>
    </g>
</svg>