<?xml version="1.0" encoding="UTF-8"?>
<svg width="368px" height="206px" viewBox="0 0 368 206" version="1.1" xmlns="http://www.w3.org/2000/svg" xmlns:xlink="http://www.w3.org/1999/xlink">
    <title>Artboard</title>
    <g id="Artboard" stroke="none" stroke-width="1" fill="none" fill-rule="evenodd">
        <path d="M208.38806,62.7564103 L208.38806,27.3846154 C202.378812,33.6511221 197.008126,39.252108 191.373134,45.1276069 C197.161423,51.1253678 202.466561,56.6213929 208.38806,62.7564103 M156.208955,27.3846154 L156.208955,62.7564103 C162.222432,56.4916824 167.600519,50.8885835 173.223881,45.0318986 C167.455679,39.0495733 162.146312,33.5421456 156.208955,27.3846154 M184.004406,36.2708375 C196.632522,24.22135 208.880638,12.533425 222,0.015575 L222,88.9855375 C208.930203,76.51775 196.692,64.8442875 184.016522,52.7514125 C171.560232,64.6284625 159.215188,76.3987125 146,89 L146,0 C159.077507,12.4811375 171.311304,24.1579375 184.004406,36.2708375" id="Logo" fill="#242631"></path>
        <path d="M17.5249589,205.02439 L18.6900713,152.04878 L28.3993417,205.02439 L39.3708173,205.02439 L48.4975315,152.439024 L49.9539221,205.02439 L62.2846956,205.02439 L60.9253977,126 L42.9632474,126 L33.6423478,171.95122 L25.0010971,126 L6.35929786,126 L5,205.02439 L17.5249589,205.02439 Z M94.7783873,206 C100.927592,206 105.749863,204.422764 109.2452,201.268293 C112.740538,198.113821 114.488206,193.544715 114.488206,187.560976 L114.488206,187.560976 L114.488206,166.097561 C114.488206,160.113821 112.740538,155.544715 109.2452,152.390244 C105.749863,149.235772 100.927592,147.658537 94.7783873,147.658537 C88.6291827,147.658537 83.8230938,149.219512 80.3601207,152.341463 C76.8971476,155.463415 75.165661,160.04878 75.165661,166.097561 L75.165661,166.097561 L75.165661,187.560976 C75.165661,193.609756 76.8971476,198.195122 80.3601207,201.317073 C83.8230938,204.439024 88.6291827,206 94.7783873,206 Z M94.87548,195.463415 C93.3867252,195.463415 92.3348875,194.894309 91.7199671,193.756098 C91.1050466,192.617886 90.7975864,190.910569 90.7975864,188.634146 L90.7975864,188.634146 L90.7975864,165.02439 C90.7975864,162.813008 91.1050466,161.121951 91.7199671,159.95122 C92.3348875,158.780488 93.3867252,158.195122 94.87548,158.195122 C96.3642348,158.195122 97.3998903,158.764228 97.9824465,159.902439 C98.5650027,161.04065 98.8562809,162.747967 98.8562809,165.02439 L98.8562809,165.02439 L98.8562809,188.634146 C98.8562809,190.910569 98.5650027,192.617886 97.9824465,193.756098 C97.3998903,194.894309 96.3642348,195.463415 94.87548,195.463415 Z M142.612726,205.02439 L142.612726,160.926829 C144.619309,159.560976 146.269885,158.878049 147.564454,158.878049 C148.729567,158.878049 149.554855,159.219512 150.040318,159.902439 C150.525782,160.585366 150.768513,161.642276 150.768513,163.073171 L150.768513,163.073171 L150.768513,205.02439 L166.497532,205.02439 L166.497532,160.829268 C166.497532,156.926829 165.607515,153.756098 163.827482,151.317073 C162.047449,148.878049 159.474493,147.658537 156.108612,147.658537 C151.512891,147.658537 147.014262,149.869919 142.612726,154.292683 L142.612726,154.292683 L142.612726,148.634146 L126.786615,148.634146 L126.786615,205.02439 L142.612726,205.02439 Z M191.126714,206 C193.910038,206 196.207899,205.154472 198.020296,203.463415 C199.832693,201.772358 201.127263,199.626016 201.904004,197.02439 C202.162918,198 202.583653,200.666667 203.16621,205.02439 L203.16621,205.02439 L217.341744,205.02439 C216.69446,201.382114 216.370817,196.699187 216.370817,190.97561 L216.370817,190.97561 L216.370817,164.634146 C216.370817,159.495935 214.914427,155.382114 212.001646,152.292683 C209.088865,149.203252 204.881514,147.658537 199.379594,147.658537 C192.842019,147.658537 187.922655,149.268293 184.621503,152.487805 C181.320351,155.707317 179.540318,160.699187 179.281404,167.463415 L179.281404,167.463415 L194.039495,168.04878 L194.427866,163.95122 C194.492595,162.520325 194.783873,161.414634 195.3017,160.634146 C195.819528,159.853659 196.693363,159.463415 197.923204,159.463415 C199.153044,159.463415 200.010697,159.886179 200.49616,160.731707 C200.981624,161.577236 201.224355,162.813008 201.224355,164.439024 L201.224355,164.439024 L201.224355,170.097561 C196.36972,171.788618 192.405101,173.414634 189.330499,174.97561 C186.255897,176.536585 183.618212,178.715447 181.417444,181.512195 C179.216676,184.308943 178.116292,187.886179 178.116292,192.243902 C178.116292,194.520325 178.617937,196.715447 179.621229,198.829268 C180.62452,200.943089 182.113275,202.666667 184.087493,204 C186.061711,205.333333 188.408118,206 191.126714,206 Z M196.758091,195.268293 C195.398793,195.268293 194.330773,194.715447 193.554032,193.609756 C192.77729,192.504065 192.388919,191.00813 192.388919,189.121951 C192.388919,186.455285 193.133297,184.195122 194.622052,182.341463 C196.110806,180.487805 198.311574,178.715447 201.224355,177.02439 L201.224355,177.02439 L201.224355,192.439024 C199.865058,194.325203 198.376303,195.268293 196.758091,195.268293 Z M245.369172,205.02439 L245.369172,168.341463 C248.152496,164.699187 251.259462,162.878049 254.690071,162.878049 C256.178826,162.878049 257.894131,163.268293 259.835985,164.04878 L259.835985,164.04878 L259.835985,148.243902 C259.123971,148.04878 258.314866,147.95122 257.408667,147.95122 C254.948985,147.95122 252.812946,148.764228 251.000549,150.390244 C249.188151,152.01626 247.311026,154.552846 245.369172,158 L245.369172,158 L245.369172,148.634146 L229.543061,148.634146 L229.543061,205.02439 L245.369172,205.02439 Z M288.348875,206 C294.368623,206 299.029073,204.536585 302.330225,201.609756 C305.631377,198.682927 307.281953,194.422764 307.281953,188.829268 L307.281953,188.829268 L307.281953,182 L292.038398,182 L292.038398,189.512195 C292.038398,191.528455 291.74712,192.95935 291.164564,193.804878 C290.582008,194.650407 289.675809,195.073171 288.445968,195.073171 C287.216127,195.073171 286.309929,194.585366 285.727372,193.609756 C285.144816,192.634146 284.853538,190.943089 284.853538,188.536585 L284.853538,188.536585 L284.853538,165.121951 C284.853538,162.715447 285.128634,161.00813 285.678826,160 C286.229018,158.99187 287.119035,158.487805 288.348875,158.487805 C289.578716,158.487805 290.501097,158.894309 291.116018,159.707317 C291.730938,160.520325 292.038398,162 292.038398,164.146341 L292.038398,164.146341 L292.038398,170.585366 L307.281953,170.585366 L307.281953,164.634146 C307.281953,159.04065 305.647559,154.813008 302.378771,151.95122 C299.109984,149.089431 294.433352,147.658537 288.348875,147.658537 C282.199671,147.658537 277.425946,149.300813 274.027702,152.585366 C270.629457,155.869919 268.930335,160.504065 268.930335,166.487805 L268.930335,166.487805 L268.930335,187.170732 C268.930335,193.089431 270.645639,197.707317 274.076248,201.02439 C277.506857,204.341463 282.264399,206 288.348875,206 Z M334.921009,205.02439 L334.921009,160.926829 C336.99232,159.560976 338.707625,158.878049 340.066923,158.878049 C341.232035,158.878049 342.057323,159.219512 342.542787,159.902439 C343.02825,160.585366 343.270982,161.642276 343.270982,163.073171 L343.270982,163.073171 L343.270982,205.02439 L359,205.02439 L359,160.829268 C359,156.926829 358.093801,153.756098 356.281404,151.317073 C354.469007,148.878049 351.944597,147.658537 348.708173,147.658537 C343.465167,147.658537 338.869446,149.642276 334.921009,153.609756 L334.921009,153.609756 L334.921009,126 L319.191991,126 L319.191991,205.02439 L334.921009,205.02439 Z" id="Monarch" fill="#242631" fill-rule="nonzero"></path>
    </g>
</svg>
